<?xml version="1.0" encoding="UTF-8" standalone="no"?>
<svg
   xmlns:dc="http://purl.org/dc/elements/1.1/"
   xmlns:cc="http://creativecommons.org/ns#"
   xmlns:rdf="http://www.w3.org/1999/02/22-rdf-syntax-ns#"
   xmlns:svg="http://www.w3.org/2000/svg"
   xmlns="http://www.w3.org/2000/svg"
   width="768"
   height="256"
   viewBox="0 0 203.19999 67.733333"
   version="1.1"
   id="svg8">
  <defs
     id="defs2" />
  <metadata
     id="metadata5">
    <rdf:RDF>
      <cc:Work
         rdf:about="">
        <dc:format>image/svg+xml</dc:format>
        <dc:type
           rdf:resource="http://purl.org/dc/dcmitype/StillImage" />
        <dc:title></dc:title>
      </cc:Work>
    </rdf:RDF>
  </metadata>
  <g
     id="layer1"
     transform="translate(0,-229.26666)">
    <g
       transform="matrix(0.26666665,0,0,0.26666665,1.0583334,216.74167)"
       id="g82">
      <rect
         ry="15.874999"
         style="fill:#6599d2;fill-opacity:1;stroke:none;stroke-width:0.26458332"
         y="58.874992"
         x="7.9375"
         height="71.4375"
         width="71.4375"
         id="rect3684" />
      <g
         style="font-style:normal;font-variant:normal;font-weight:normal;font-stretch:normal;font-size:medium;line-height:1.25;font-family:monospace;-inkscape-font-specification:monospace;letter-spacing:0px;word-spacing:0px;fill:#ffffff;fill-opacity:1;stroke:none"
         id="g4630"
         transform="matrix(0.73623188,0,0,0.73516643,-241.74864,-233.3202)">
        <path
           style="fill:#00579e;fill-opacity:1;stroke:none;stroke-width:2.78059459"
           d="M 248.73828,96.880859 180.65234,164.86914 289.67578,273.73633 C 296.19355,264.13458 300,252.52905 300,240 V 148.06836 Z M 149.34766,164.86914 81,233.37891 147.7168,300 H 240 c 12.6835,0 24.41608,-3.90653 34.08594,-10.57227 z"
           transform="matrix(0.359375,0,0,0.35989583,328.35938,386.6576)"
           id="path4626" />
      </g>
      <path
         style="font-style:normal;font-variant:normal;font-weight:normal;font-stretch:normal;font-size:medium;line-height:1.25;font-family:monospace;-inkscape-font-specification:monospace;letter-spacing:0px;word-spacing:0px;fill:#ffffff;fill-opacity:1;stroke:none;stroke-width:0.73569894"
         id="path4607"
         d="M 43.65625,98.694589 25.503532,116.82104 q -1.035326,1.03382 -1.518478,1.30951 -0.483152,0.20677 -1.173369,0.20677 -1.242392,0 -2.139674,-0.82706 -0.828261,-0.89599 -0.828261,-2.13658 0,-1.17167 1.5875,-2.68795 L 39.514945,94.559278 21.362228,76.43283 q -1.518478,-1.51628 -1.518478,-2.687952 0,-1.240593 0.828261,-2.067656 0.897282,-0.895984 2.139674,-0.895984 1.173369,0 2.691847,1.585203 L 43.65625,90.492888 61.670924,72.435363 q 1.5875,-1.516281 2.760869,-1.516281 1.242391,0 2.070652,0.895984 0.828261,0.827062 0.828261,2.067656 0,1.171671 -1.518478,2.687952 L 47.797554,94.559278 65.950271,112.68573 q 1.518479,1.5852 1.518479,2.75687 0,1.24059 -0.897283,2.13658 -0.828261,0.82706 -2.070652,0.82706 -0.621196,0 -1.035326,-0.27569 -0.690218,-0.27569 -1.656522,-1.30951 z" />
    </g>
    <g
       transform="matrix(0.26666666,0,0,0.26666666,1.0583331,216.74166)"
       id="g5013">
      <rect
         style="fill:#6599d2;fill-opacity:1;stroke:none;stroke-width:0.26458332"
         id="rect4699"
         width="71.4375"
         height="71.4375"
         x="87.3125"
         y="58.874992"
         ry="15.874999" />
      <g
         transform="matrix(0.53985122,0,0,0.53586498,318.66827,-144.39858)"
         id="g4746"
         style="font-style:normal;font-variant:normal;font-weight:normal;font-stretch:normal;font-size:medium;line-height:1.25;font-family:monospace;-inkscape-font-specification:monospace;letter-spacing:0px;word-spacing:0px;fill:#00579e;fill-opacity:1;stroke:none">
        <path
           id="path4742"
           transform="matrix(0.49010417,0,0,0.49375,-590.28906,364.52479)"
           d="M 413.44922,172.97461 541.38477,299.96484 C 573.97757,299.23107 600,272.77534 600,240 v -0.14258 l -67.38086,-66.88281 z"
           style="fill:#00579e;fill-opacity:1;stroke-width:2.03283548" />
      </g>
      <path
         d="m 127.15605,74.850463 q 0,1.70807 -1.21467,2.913766 -1.21466,1.205696 -2.88483,1.205696 -1.72077,0 -2.93544,-1.205696 -1.21466,-1.205696 -1.21466,-2.913766 0,-1.657832 1.21466,-2.863528 1.21467,-1.205697 2.93544,-1.205697 1.67017,0 2.88483,1.205697 1.21467,1.155458 1.21467,2.863528 z m 13.76621,21.853244 h -35.78202 q -3.99827,0 -4.40316,-0.100475 -0.65794,-0.150712 -1.113443,-0.703323 -0.404888,-0.602848 -0.404888,-1.306171 0,-0.703322 0.404888,-1.255933 0.455503,-0.602848 1.113443,-0.75356 0.40489,-0.100475 4.40316,-0.100475 h 35.78202 q 3.99827,0 4.40316,0.100475 0.65794,0.150712 1.06283,0.75356 0.4555,0.552611 0.4555,1.255933 0,0.703323 -0.4555,1.306171 -0.40489,0.552611 -1.06283,0.703323 -0.40489,0.100475 -4.40316,0.100475 z m -13.76621,17.633303 q 0,1.70807 -1.21467,2.91377 -1.21466,1.15546 -2.93544,1.15546 -1.67016,0 -2.88483,-1.15546 -1.21466,-1.2057 -1.21466,-2.91377 0,-1.70806 1.21466,-2.86352 1.21467,-1.2057 2.88483,-1.2057 1.72078,0 2.93544,1.2057 1.21467,1.15546 1.21467,2.86352 z"
         id="path4725"
         style="font-style:normal;font-variant:normal;font-weight:normal;font-stretch:normal;font-size:medium;line-height:1.25;font-family:monospace;-inkscape-font-specification:monospace;letter-spacing:0px;word-spacing:0px;fill:#ffffff;fill-opacity:1;stroke:none;stroke-width:0.53785443" />
    </g>
    <g
       transform="matrix(0.49416342,0,0,0.87737478,287.26337,-172.05398)"
       id="g285"
       style="font-style:normal;font-variant:normal;font-weight:normal;font-stretch:normal;font-size:medium;line-height:1.25;font-family:monospace;-inkscape-font-specification:monospace;letter-spacing:0px;word-spacing:0px;fill:#00579e;fill-opacity:1;stroke:none" />
    <flowRoot
       transform="matrix(0.26458333,0,0,0.26458333,0,42.999991)"
       style="font-style:normal;font-variant:normal;font-weight:normal;font-stretch:normal;font-size:192px;line-height:1.25;font-family:monospace;-inkscape-font-specification:monospace;letter-spacing:0px;word-spacing:0px;fill:#ffffff;fill-opacity:1;stroke:none"
       id="flowRoot1153"
       xml:space="preserve"><flowRegion
         style="font-style:normal;font-variant:normal;font-weight:normal;font-stretch:normal;font-size:192px;font-family:monospace;-inkscape-font-specification:monospace;fill:#ffffff;fill-opacity:1"
         id="flowRegion1155"><rect
           style="font-style:normal;font-variant:normal;font-weight:normal;font-stretch:normal;font-size:192px;font-family:monospace;-inkscape-font-specification:monospace;fill:#ffffff;fill-opacity:1"
           y="360"
           x="360"
           height="180"
           width="210"
           id="rect1157" /></flowRegion><flowPara
         id="flowPara1159">−</flowPara></flowRoot>    <flowRoot
       transform="matrix(0.26458333,0,0,0.26458333,0,42.999991)"
       style="font-style:normal;font-variant:normal;font-weight:normal;font-stretch:normal;font-size:192px;line-height:1.25;font-family:monospace;-inkscape-font-specification:monospace;letter-spacing:0px;word-spacing:0px;fill:#000000;fill-opacity:1;stroke:none"
       id="flowRoot1161"
       xml:space="preserve"><flowRegion
         style="font-style:normal;font-variant:normal;font-weight:normal;font-stretch:normal;font-size:192px;font-family:monospace;-inkscape-font-specification:monospace"
         id="flowRegion1163"><rect
           style="font-style:normal;font-variant:normal;font-weight:normal;font-stretch:normal;font-size:192px;font-family:monospace;-inkscape-font-specification:monospace"
           y="450"
           x="360"
           height="120"
           width="150"
           id="rect1165" /></flowRegion><flowPara
         id="flowPara1167">−</flowPara></flowRoot>    <flowRoot
       transform="matrix(0.26458333,0,0,0.26458333,0,42.999991)"
       style="font-style:normal;font-variant:normal;font-weight:normal;font-stretch:normal;font-size:192px;line-height:1.25;font-family:monospace;-inkscape-font-specification:monospace;letter-spacing:0px;word-spacing:0px;fill:#000000;fill-opacity:1;stroke:none"
       id="flowRoot1183"
       xml:space="preserve"><flowRegion
         style="font-style:normal;font-variant:normal;font-weight:normal;font-stretch:normal;font-size:192px;font-family:monospace;-inkscape-font-specification:monospace"
         id="flowRegion1185"><rect
           style="font-style:normal;font-variant:normal;font-weight:normal;font-stretch:normal;font-size:192px;font-family:monospace;-inkscape-font-specification:monospace"
           y="720"
           x="390"
           height="90"
           width="120"
           id="rect1187" /></flowRegion><flowPara
         id="flowPara1189">−</flowPara></flowRoot>    <g
       transform="matrix(0.26666666,0,0,0.26666666,1.0583331,216.74166)"
       id="g5025">
      <rect
         ry="15.874999"
         y="217.62498"
         x="87.3125"
         height="71.4375"
         width="71.4375"
         id="rect4701"
         style="fill:#6599d2;fill-opacity:1;stroke:none;stroke-width:0.26458332" />
      <g
         transform="matrix(1.0021231,0,0,0.99788139,0,7.9375113)"
         style="font-style:normal;font-variant:normal;font-weight:normal;font-stretch:normal;font-size:medium;line-height:1.25;font-family:monospace;-inkscape-font-specification:monospace;letter-spacing:0px;word-spacing:0px;fill:#ffffff;fill-opacity:1;stroke:none;stroke-width:2.58579588"
         id="g1233">
        <path
           id="path1229"
           transform="matrix(0.26402279,0,0,0.26514507,0,43.091285)"
           d="m 397.38086,757 16.06836,16 H 397.38086 L 524.91992,900 H 540 c 33.24,0 60,-26.76 60,-60 V 824.0957 L 532.61914,757 Z"
           style="fill:#00579e;fill-opacity:1;stroke:none;stroke-width:9.77308655" />
      </g>
      <path
         d="m 140.92225,255.46044 h -35.78201 q -3.99827,0 -4.40316,-0.10079 -0.65794,-0.15119 -1.11344,-0.70556 -0.40489,-0.60476 -0.40489,-1.31031 0,-0.70557 0.40489,-1.25993 0.4555,-0.60476 1.11344,-0.75594 0.40489,-0.1008 4.40316,-0.1008 h 35.78201 q 3.99828,0 4.40317,0.1008 0.65794,0.15118 1.06283,0.75594 0.45549,0.55436 0.45549,1.25993 0,0.70555 -0.45549,1.31031 -0.40489,0.55437 -1.06283,0.70556 -0.40489,0.10079 -4.40317,0.10079 z"
         style="font-style:normal;font-variant:normal;font-weight:normal;font-stretch:normal;font-size:medium;line-height:1.25;font-family:monospace;-inkscape-font-specification:monospace;letter-spacing:0px;word-spacing:0px;fill:#ffffff;fill-opacity:1;stroke:none;stroke-width:2.58579588"
         id="path1195" />
    </g>
    <flowRoot
       xml:space="preserve"
       id="flowRoot1291"
       style="font-style:normal;font-variant:normal;font-weight:normal;font-stretch:normal;font-size:192px;line-height:1.25;font-family:monospace;-inkscape-font-specification:monospace;letter-spacing:0px;word-spacing:0px;fill:#000000;fill-opacity:1;stroke:none"
       transform="matrix(0.26458333,0,0,0.26458333,0,42.999991)"><flowRegion
         id="flowRegion1293"><rect
           id="rect1295"
           width="150"
           height="210"
           x="90"
           y="540" /></flowRegion><flowPara
         id="flowPara1297">=</flowPara></flowRoot>    <g
       transform="matrix(0.26666667,0,0,0.26666667,1.0583332,216.74166)"
       id="g5019">
      <rect
         style="fill:#dc143c;fill-opacity:1;stroke:none;stroke-width:0.26458332"
         id="rect1151"
         width="71.4375"
         height="150.8125"
         x="7.9375"
         y="138.24998"
         ry="15.875007" />
      <g
         transform="matrix(0.49416342,0,0,0.48986759,-296.15831,-19.425719)"
         id="g102"
         style="font-style:normal;font-variant:normal;font-weight:normal;font-stretch:normal;font-size:medium;line-height:1.25;font-family:monospace;-inkscape-font-specification:monospace;letter-spacing:0px;word-spacing:0px;fill:#ffffff;fill-opacity:1;stroke:none">
        <path
           id="path94"
           transform="matrix(0.53541667,0,0,0.54011194,599.31249,143.6372)"
           d="M 84.804688,581.5 99.6875,596.25391 H 84.804688 l 37.996092,37.66601 H 84.804688 L 99.511719,648.5 H 84.804688 L 296.98828,858.83789 C 298.93312,852.91632 300,846.5887 300,840 V 635.82812 L 245.19531,581.5 Z"
           style="fill:#b22222;fill-opacity:1;stroke:none;stroke-width:1.85956848" />
      </g>
      <path
         d="M 64.874396,208.69633 H 22.438112 q -1.389834,0 -1.992096,-0.5511 -0.602262,-0.5511 -0.602262,-1.42368 0,-0.82665 0.602262,-1.37775 0.602262,-0.5511 1.992096,-0.5511 h 42.436284 q 1.389835,0 1.992096,0.5511 0.602262,0.5511 0.602262,1.42368 0,0.82665 -0.602262,1.37775 -0.602261,0.5511 -1.992096,0.5511 z m 0,13.82345 H 22.438112 q -1.389834,0 -1.992096,-0.50518 -0.602262,-0.5511 -0.602262,-1.42367 0,-0.87258 0.602262,-1.37776 0.602262,-0.5511 1.992096,-0.5511 h 42.436284 q 1.389835,0 1.992096,0.5511 0.602262,0.50518 0.602262,1.37776 0,0.87257 -0.602262,1.42367 -0.602261,0.50518 -1.992096,0.50518 z"
         id="path1307"
         style="font-style:normal;font-variant:normal;font-weight:normal;font-stretch:normal;font-size:medium;line-height:1.25;font-family:monospace;-inkscape-font-specification:monospace;letter-spacing:0px;word-spacing:0px;fill:#ffffff;fill-opacity:1;stroke:none;stroke-width:0.4920108" />
    </g>
    <g
       transform="matrix(0.26315014,0,0,0.26315014,-0.66756021,217.22783)"
       id="g5033">
      <rect
         ry="13.890633"
         y="138.24998"
         x="111.125"
         height="55.562508"
         width="55.5625"
         id="rect995"
         style="fill:#ffffff;fill-opacity:1;stroke:#dcdcdc;stroke-width:0.74248517;stroke-miterlimit:4;stroke-dasharray:none;stroke-opacity:1" />
      <g
         id="flowRoot1015"
         style="font-style:normal;font-variant:normal;font-weight:bold;font-stretch:normal;font-size:192px;line-height:1.25;font-family:monospace;-inkscape-font-specification:'monospace Bold';letter-spacing:0px;word-spacing:0px;fill:#dc143c;fill-opacity:1;stroke:none"
         transform="matrix(0.31799687,0,0,0.29095074,-98.831191,-50.377701)"
         aria-label="+">
        <g
           id="g1245">
          <g
             id="g1242">
            <path
               style="fill:#dcdcdc;fill-opacity:1;stroke:none;stroke-width:1.1496315"
               d="m 513.45117,389.12305 v 35.25781 H 480.4375 l 23.09961,21.13476 H 480.4375 l 33.01367,30.20508 v 5.15625 l 64.60352,59.10938 C 606.88078,539.68932 630,516.39891 630,487.5 v -12.97656 l -93.33789,-85.40039 -0.0684,21.17383 z"
               transform="matrix(0.83203125,0,0,0.90937501,310.79297,348.22112)"
               id="path1227" />
          </g>
          <path
             id="path1031"
             d="m 757.21875,753.36174 v 32.15625 q 0,6.9375 -2.625,9.9375 -2.625,2.90625 -6.9375,2.90625 -4.3125,0 -7.03125,-2.90625 -2.625,-3 -2.625,-9.9375 v -32.15625 h -27.46875 q -6.9375,0 -9.9375,-2.625 -2.90625,-2.71875 -2.90625,-7.03125 0,-4.3125 2.90625,-6.9375 3,-2.71875 9.9375,-2.625 H 738 v -32.0625 q 0,-6.84375 2.625,-9.84375 2.71875,-3 7.03125,-3 4.3125,0 6.9375,3 2.71875,2.90625 2.71875,9.84375 l -0.0937,32.0625 h 27.46875 q 6.9375,0 9.84375,2.625 3,2.625 3,6.9375 0,4.3125 -3,7.03125 -2.90625,2.625 -9.84375,2.625 z" />
        </g>
      </g>
    </g>
    <g
       transform="matrix(0.26315014,0,0,0.26315014,1.9406044,217.16677)"
       id="g5041">
      <rect
         style="fill:#ffffff;fill-opacity:1;stroke:#dcdcdc;stroke-width:0.74248517;stroke-miterlimit:4;stroke-dasharray:none;stroke-opacity:1"
         id="rect1318"
         width="55.5625"
         height="55.562508"
         x="181.64938"
         y="138.48201"
         ry="13.890633" />
      <g
         aria-label="+"
         transform="matrix(0.31799687,0,0,0.29095074,-28.306814,-50.145675)"
         style="font-style:normal;font-variant:normal;font-weight:bold;font-stretch:normal;font-size:192px;line-height:1.25;font-family:monospace;-inkscape-font-specification:'monospace Bold';letter-spacing:0px;word-spacing:0px;fill:#dc143c;fill-opacity:1;stroke:none"
         id="g1328">
        <g
           id="g1326">
          <g
             id="g1322">
            <path
               id="path1320"
               transform="matrix(0.83203125,0,0,0.90937501,310.79297,348.22112)"
               d="m 513.45117,389.12305 v 35.25781 H 480.4375 l 23.09961,21.13476 H 480.4375 l 33.01367,30.20508 v 5.15625 l 64.60352,59.10938 C 606.88078,539.68932 630,516.39891 630,487.5 v -12.97656 l -93.33789,-85.40039 -0.0684,21.17383 z"
               style="fill:#dcdcdc;fill-opacity:1;stroke:none;stroke-width:1.1496315" />
          </g>
          <path
             d="m 757.21875,753.36174 v 32.15625 q 0,6.9375 -2.625,9.9375 -2.625,2.90625 -6.9375,2.90625 -4.3125,0 -7.03125,-2.90625 -2.625,-3 -2.625,-9.9375 v -32.15625 h -27.46875 q -6.9375,0 -9.9375,-2.625 -2.90625,-2.71875 -2.90625,-7.03125 0,-4.3125 2.90625,-6.9375 3,-2.71875 9.9375,-2.625 H 738 v -32.0625 q 0,-6.84375 2.625,-9.84375 2.71875,-3 7.03125,-3 4.3125,0 6.9375,3 2.71875,2.90625 2.71875,9.84375 l -0.0937,32.0625 h 27.46875 q 6.9375,0 9.84375,2.625 3,2.625 3,6.9375 0,4.3125 -3,7.03125 -2.90625,2.625 -9.84375,2.625 z"
             id="path1324" />
        </g>
      </g>
    </g>
    <flowRoot
       style="fill:black;fill-opacity:1;stroke:none;font-family:'Neo Sans';font-style:normal;font-weight:normal;font-size:29.33333333px;line-height:1.25;letter-spacing:0px;word-spacing:0px;-inkscape-font-specification:'Neo Sans';font-stretch:normal;font-variant:normal;"
       id="flowRoot68"
       xml:space="preserve"><flowRegion
         style="font-size:29.33333333px;"
         id="flowRegion70"><rect
           style="font-size:29.33333333px;"
           y="36.000008"
           x="280"
           height="200"
           width="300"
           id="rect72" /></flowRegion><flowPara
         id="flowPara74" /></flowRoot>    <flowRoot
       style="fill:black;fill-opacity:1;stroke:none;font-family:'Neo Sans';font-style:normal;font-weight:normal;font-size:29.33333333px;line-height:1.25;letter-spacing:0px;word-spacing:0px;-inkscape-font-specification:'Neo Sans';font-stretch:normal;font-variant:normal;"
       id="flowRoot76"
       xml:space="preserve"><flowRegion
         style="font-size:29.33333333px;"
         id="flowRegion78"><rect
           style="font-size:29.33333333px;"
           y="16.000008"
           x="248"
           height="200"
           width="371.99997"
           id="rect80" /></flowRegion><flowPara
         id="flowPara82" /></flowRoot>    <text
       id="text86"
       y="238.79166"
       x="68.791664"
       style="font-style:normal;font-variant:normal;font-weight:normal;font-stretch:normal;font-size:50.79999924px;line-height:1.25;font-family:'Neo Sans';-inkscape-font-specification:'Neo Sans';letter-spacing:0px;word-spacing:0px;fill:#000000;fill-opacity:0;stroke:none;stroke-width:0.26458332;"
       xml:space="preserve"><tspan
         style="font-size:7.76111126px;stroke-width:0.26458332;fill:#000000;fill-opacity:0;"
         y="285.36371"
         x="68.791664"
         id="tspan84" /></text>
    <text
       id="text96"
       y="210.21666"
       x="68.791664"
       style="font-style:normal;font-variant:normal;font-weight:normal;font-stretch:normal;font-size:50.79999924px;line-height:1.25;font-family:'Neo Sans';-inkscape-font-specification:'Neo Sans';letter-spacing:0px;word-spacing:0px;fill:#000000;fill-opacity:1;stroke:none;stroke-width:0.26458332"
       xml:space="preserve"><tspan
         style="stroke-width:0.26458332"
         y="256.7887"
         x="68.791664"
         id="tspan94" /></text>
    <text
       transform="scale(1.0014977,0.99850455)"
       id="text100"
       y="276.90771"
       x="80.222359"
       style="font-style:normal;font-variant:normal;font-weight:normal;font-stretch:normal;font-size:7.73872662px;line-height:1.25;font-family:monospace;-inkscape-font-specification:monospace;letter-spacing:0px;word-spacing:0px;fill:#00589c;fill-opacity:1;stroke:none;stroke-width:0.2638202"
       xml:space="preserve"><tspan
         style="fill:#00589c;fill-opacity:1;stroke-width:0.2638202"
         y="276.90771"
         x="80.222359"
         id="tspan98">Math expressions parser</tspan></text>
    <text
       id="text909"
       y="244.08333"
       x="89.958336"
       style="font-style:normal;font-variant:normal;font-weight:bold;font-stretch:normal;font-size:12.69999981px;line-height:1.25;font-family:monospace;-inkscape-font-specification:'monospace Bold';letter-spacing:0px;word-spacing:0px;fill:#000000;fill-opacity:1;stroke:none;stroke-width:0.26458332;"
       xml:space="preserve"><tspan
         style="stroke-width:0.26458332;-inkscape-font-specification:'monospace Bold';font-family:monospace;font-weight:bold;font-style:normal;font-stretch:normal;font-variant:normal;"
         y="255.3835"
         x="89.958336"
         id="tspan907" /></text>
    <text
       id="text913"
       y="238.79166"
       x="95.25"
       style="font-style:normal;font-variant:normal;font-weight:bold;font-stretch:normal;font-size:16.93333333px;line-height:1.25;font-family:monospace;-inkscape-font-specification:'monospace Bold';letter-spacing:0px;word-spacing:0px;fill:#000000;fill-opacity:1;stroke:none;stroke-width:0.26458332;"
       xml:space="preserve"><tspan
         style="stroke-width:0.26458332;-inkscape-font-specification:'monospace Bold';font-family:monospace;font-weight:bold;font-style:normal;font-stretch:normal;font-variant:normal;font-size:16.93333333px;"
         y="250.09183"
         x="95.25"
         id="tspan911" /></text>
    <text
       transform="scale(1.0117367,0.98839946)"
       id="text917"
       y="261.61041"
       x="78.882423"
       style="font-style:normal;font-variant:normal;font-weight:normal;font-stretch:normal;font-size:12.70976639px;line-height:1.25;font-family:monospace;-inkscape-font-specification:monospace;letter-spacing:0px;word-spacing:0px;fill:#000000;fill-opacity:1;stroke:none;stroke-width:0.26478678"
       xml:space="preserve"><tspan
         style="font-style:normal;font-variant:normal;font-weight:bold;font-stretch:normal;font-size:19.77074814px;font-family:monospace;-inkscape-font-specification:'monospace Bold';fill:#004481;fill-opacity:1;stroke-width:0.26478678"
         y="261.61041"
         x="78.882423"
         id="tspan915">Calculate</tspan></text>
  </g>
</svg>
